HIERARCHY
ROOT hip
{
  OFFSET 0 0 0
  CHANNELS 6 Xposition Yposition Zposition Zrotation Yrotation Xrotation
  JOINT abdomen
  {
    OFFSET 0 20.6881 -0.73152
    CHANNELS 3 Zrotation Xrotation Yrotation
    JOINT chest
    {
      OFFSET 0 11.7043 -0.48768
      CHANNELS 3 Zrotation Xrotation Yrotation
      JOINT neck
      {
        OFFSET 0 22.1894 -2.19456
        CHANNELS 3 Zrotation Xrotation Yrotation
        JOINT head
        {
          OFFSET -0.24384 7.07133 1.2192
          CHANNELS 3 Zrotation Xrotation Yrotation
          JOINT leftEye
          {
            OFFSET 4.14528 8.04674 8.04672
            CHANNELS 3 Zrotation Xrotation Yrotation
            End Site
            {
              OFFSET 1 0 0
            }
          }
          JOINT rightEye
          {
            OFFSET -3.6576 8.04674 8.04672
            CHANNELS 3 Zrotation Xrotation Yrotation
            End Site
            {
              OFFSET 1 0 0
            }
          }
        }
      }
      JOINT rCollar
      {
        OFFSET -2.68224 19.2634 -4.8768
        CHANNELS 3 Zrotation Xrotation Yrotation
        JOINT rShldr
        {
          OFFSET -8.77824 -1.95073 1.46304
          CHANNELS 3 Zrotation Xrotation Yrotation
          JOINT rForeArm
          {
            OFFSET -28.1742 -1.7115 0.48768
            CHANNELS 3 Zrotation Xrotation Yrotation
            JOINT rHand
            {
              OFFSET -22.5879 0.773209 7.07136
              CHANNELS 3 Zrotation Xrotation Yrotation
              JOINT rThumb1
              {
                OFFSET -1.2192 -0.487915 3.41376
                CHANNELS 3 Zrotation Xrotation Yrotation
                JOINT rThumb2
                {
                  OFFSET -3.37035 -0.52449 3.41376
                  CHANNELS 3 Zrotation Xrotation Yrotation
                  End Site
                  {
                    OFFSET -1.78271 -1.18214 1.43049
                  }
                }
              }
              JOINT rIndex1
              {
                OFFSET -7.75947 0.938293 5.60832
                CHANNELS 3 Zrotation Xrotation Yrotation
                JOINT rIndex2
                {
                  OFFSET -2.54057 -0.884171 1.56538
                  CHANNELS 3 Zrotation Xrotation Yrotation
                  End Site
                  {
                    OFFSET -1.62519 -0.234802 1.16502
                  }
                }
              }
              JOINT rMid1
              {
                OFFSET -8.24714 1.18213 3.41376
                CHANNELS 3 Zrotation Xrotation Yrotation
                JOINT rMid2
                {
                  OFFSET -3.10165 -0.590103 1.0647
                  CHANNELS 3 Zrotation Xrotation Yrotation
                  End Site
                  {
                    OFFSET -2.48547 -0.328903 0.83742
                  }
                }
              }
              JOINT rRing1
              {
                OFFSET -8.82822 0.546677 1.51678
                CHANNELS 3 Zrotation Xrotation Yrotation
                JOINT rRing2
                {
                  OFFSET -2.60934 -0.819778 -0.0198488
                  CHANNELS 3 Zrotation Xrotation Yrotation
                  End Site
                  {
                    OFFSET -2.33842 -0.294052 0.168128
                  }
                }
              }
              JOINT rPinky1
              {
                OFFSET -8.27202 -0.0477905 -0.4584
                CHANNELS 3 Zrotation Xrotation Yrotation
                JOINT rPinky2
                {
                  OFFSET -1.82734 -0.647385 -0.700984
                  CHANNELS 3 Zrotation Xrotation Yrotation
                  End Site
                  {
                    OFFSET -1.69225 -0.51767 -0.607171
                  }
                }
              }
            }
          }
        }
      }
      JOINT lCollar
      {
        OFFSET 2.68224 19.2634 -4.8768
        CHANNELS 3 Zrotation Xrotation Yrotation
        JOINT lShldr
        {
          OFFSET 8.77824 -1.95073 1.46304
          CHANNELS 3 Zrotation Xrotation Yrotation
          JOINT lForeArm
          {
            OFFSET 28.1742 -1.7115 0.48768
            CHANNELS 3 Zrotation Xrotation Yrotation
            JOINT lHand
            {
              OFFSET 22.5879 0.773209 7.07136
              CHANNELS 3 Zrotation Xrotation Yrotation
              JOINT lThumb1
              {
                OFFSET 1.2192 -0.487915 3.41376
                CHANNELS 3 Zrotation Xrotation Yrotation
                JOINT lThumb2
                {
                  OFFSET 3.37035 -0.52449 3.41376
                  CHANNELS 3 Zrotation Xrotation Yrotation
                  End Site
                  {
                    OFFSET 1.78271 -1.18214 1.43049
                  }
                }
              }
              JOINT lIndex1
              {
                OFFSET 7.75947 0.938293 5.60832
                CHANNELS 3 Zrotation Xrotation Yrotation
                JOINT lIndex2
                {
                  OFFSET 2.54057 -0.884171 1.56538
                  CHANNELS 3 Zrotation Xrotation Yrotation
                  End Site
                  {
                    OFFSET 1.62519 -0.234802 1.16502
                  }
                }
              }
              JOINT lMid1
              {
                OFFSET 8.24714 1.18213 3.41376
                CHANNELS 3 Zrotation Xrotation Yrotation
                JOINT lMid2
                {
                  OFFSET 3.10165 -0.590103 1.0647
                  CHANNELS 3 Zrotation Xrotation Yrotation
                  End Site
                  {
                    OFFSET 2.48547 -0.328903 0.83742
                  }
                }
              }
              JOINT lRing1
              {
                OFFSET 8.82822 0.546677 1.51678
                CHANNELS 3 Zrotation Xrotation Yrotation
                JOINT lRing2
                {
                  OFFSET 2.60934 -0.819778 -0.0198488
                  CHANNELS 3 Zrotation Xrotation Yrotation
                  End Site
                  {
                    OFFSET 2.33842 -0.294052 0.168128
                  }
                }
              }
              JOINT lPinky1
              {
                OFFSET 8.27202 -0.0477905 -0.4584
                CHANNELS 3 Zrotation Xrotation Yrotation
                JOINT lPinky2
                {
                  OFFSET 1.82734 -0.647385 -0.700984
                  CHANNELS 3 Zrotation Xrotation Yrotation
                  End Site
                  {
                    OFFSET 1.69225 -0.51767 -0.607171
                  }
                }
              }
            }
          }
        }
      }
    }
  }
  JOINT rButtock
  {
    OFFSET -8.77824 4.35084 1.2192
    CHANNELS 3 Zrotation Xrotation Yrotation
    JOINT rThigh
    {
      OFFSET 0 -1.70687 -2.19456
      CHANNELS 3 Zrotation Xrotation Yrotation
      JOINT rShin
      {
        OFFSET 0 -36.8199 0.73152
        CHANNELS 3 Zrotation Xrotation Yrotation
        JOINT rFoot
        {
          OFFSET 0.73152 -45.1104 -5.12064
          CHANNELS 3 Zrotation Xrotation Yrotation
          End Site
          {
            OFFSET -1.1221 -3.69964 12.103
          }
        }
      }
    }
  }
  JOINT lButtock
  {
    OFFSET 8.77824 4.35084 1.2192
    CHANNELS 3 Zrotation Xrotation Yrotation
    JOINT lThigh
    {
      OFFSET 0 -1.70687 -2.19456
      CHANNELS 3 Zrotation Xrotation Yrotation
      JOINT lShin
      {
        OFFSET 0 -36.8199 0.73152
        CHANNELS 3 Zrotation Xrotation Yrotation
        JOINT lFoot
        {
          OFFSET -0.73152 -45.1104 -5.12064
          CHANNELS 3 Zrotation Xrotation Yrotation
          End Site
          {
            OFFSET 1.1221 -3.69964 12.103
          }
        }
      }
    }
  }
}
MOTION
Frames:	5
Frame Time:	0.03333
2.1727 53.9435 46.603699999999996 166.057261 -45.675468 -164.922313 -12.800747 8.100117 -93.525024 6.280968 3.148703 97.966556 -12.608338 31.88668 -109.564812 40.971196 20.020161 63.950333 -6.954479 -0.615591 10.104688 -3.897921 0.773026 -22.426316 1.249418 -52.473869 -13.035675 39.591239 14.621936 41.768257 92.007987 -53.729713 72.51151 -173.993083 45.829243 151.246078 -163.851968 -4.832435 92.604561 -126.550859 17.243781 64.613564 -144.203577 3.475122 118.150262 -90.794912 53.408957 55.940167 -154.732178 18.389888 137.448803 -173.726233 -8.322212 141.913282 -0.56351 3.7116 -0.407877 -65.249463 -84.445153 -86.782582 -142.963516 29.63767 -147.389324 5.730171 -18.252537 -3.84718 -1.835835 -14.620141 2.529939 76.459264 -26.980663 123.924182 6.981792 -4.792504 138.128224 154.465632 18.221148 -138.763601 -78.966819 -47.366011 -32.339971 20.026835 -13.319365 18.307646 159.702613 -35.69137 -131.088486 8.425781 36.601061 -3.751624 166.826985 -9.213141 -136.527255 7.051436 -1.848365 -21.209844 144.766513 -4.938241 175.753558 -18.393209 14.926626 11.089986 146.615675 9.257641 140.033314 -7.841407 25.259363 -4.497283 160.119372 67.363387 15.186008 158.768614 -8.552594 -180.0 3.924371 -72.030758 171.909073 -55.98546 -22.535149 31.95297 0.279636 4.154773 -3.853874 13.107048 -0.384231 -89.676353 -41.381269 -1.792219 93.206113 86.757848 13.509635 -5.665888
3.1112 54.035999999999994 47.9109 166.62484 -46.014936 -165.670252 -14.434896 6.455325 -180.0 -5.282014 4.056415 -175.279647 -3.507276 16.46353 10.557046 -8.319432 -28.300407 -51.931571 -8.836421 -0.72552 9.369151 -2.874084 0.621168 -24.386471 -0.708769 -62.049616 -16.71599 -113.58317 3.361936 146.060954 87.389852 60.864946 -121.085974 175.013143 12.557295 152.043087 94.413419 -54.324432 38.423057 -34.097811 19.042669 4.733377 -11.768366 12.233299 3.092294 7.213395 22.433727 9.985962 -43.687302 52.32617 32.839601 -119.76574 43.546768 108.591096 0.414927 0.194858 -0.864151 8.132053 28.054399 1.646522 -144.022317 41.722778 -151.391709 50.888351 84.797608 -0.851117 -1.776774 -70.141575 16.070854 -125.937647 22.611394 120.81638 97.572741 -28.221164 -56.513173 172.471647 -50.056241 -160.562959 -179.873542 -14.547232 -86.212999 -157.902528 -40.419795 -104.882664 47.654333 47.370882 -33.505026 -65.20856 -60.669403 -24.651969 -173.840698 -45.476067 -135.07174 1.78898 -35.273202 -8.612554 -0.050084 3.622378 -0.13164 -0.691534 29.29413 -8.088506 77.962363 -50.726877 73.57602 10.345325 -24.716078 16.286305 5.126043 7.402728 1.333465 -82.356129 -60.009594 -81.841012 -23.074576 66.163818 51.906713 37.173332 -15.521566 -25.114111 95.764198 46.543268 45.143268 -81.217087 40.205929 -95.695687 -46.226976 33.277458 -80.773982 -93.104371 27.158359 -174.174791
4.0541 54.3046 49.2759 167.650366 -47.374149 -166.824232 -11.310339 8.11584 -125.216301 2.097863 5.629936 128.894778 -3.446657 16.694535 11.19872 -9.199043 -28.979193 -53.15299 -10.578261 -0.720035 7.765977 -1.571964 0.375818 -26.889756 -1.005913 0.101134 -1.060974 72.702456 -35.716795 79.668529 168.683684 -28.91614 119.078909 163.603633 -22.784476 145.395035 -101.801846 39.586584 63.074535 49.36717 -53.399086 34.365099 -6.623083 3.385755 0.381025 -156.804806 -30.653816 108.917395 70.689242 -79.547975 47.50782 -90.481735 77.209745 86.698797 -142.645628 0.9718 -179.937172 13.067363 31.820496 -3.371817 -70.18603 -55.734558 -75.281905 -24.615181 -43.203726 -13.901756 -3.73011 -44.742367 9.139548 -104.880969 32.130794 87.304358 -88.285785 33.541704 -76.083389 42.241338 35.103939 -23.696629 -10.238546 -11.555219 -3.872107 129.315905 -25.217119 -121.253572 147.276772 -3.191431 -127.183379 58.788208 63.294765 -41.032641 145.636345 29.940671 -124.755159 148.386492 8.213202 -120.192542 -0.91827 -0.012388 0.071609 153.948705 24.496397 -165.656101 137.648411 -12.067002 131.167765 163.664837 39.968721 139.376438 0.664025 7.004904 -0.928431 -73.965032 -64.119976 -163.494165 -79.132293 -5.67184 -107.909767 92.099141 40.068117 -166.110617 29.821421 6.207701 14.708386 -17.093417 -1.415901 0.0 13.594667 49.639945 -103.844514 82.676559 -50.74555 162.807881
5.0165 54.68300000000001 50.75920000000001 168.896371 -48.211654 -168.325705 -12.958222 12.380484 26.329487 1.965856 -10.25539 -22.370825 -11.728865 33.950467 -121.517042 40.779855 27.719264 72.283022 -10.455437 -0.684794 7.473972 -1.174186 0.329785 -31.375223 -57.169492 -86.041698 -77.964514 58.438143 -6.27507 11.642902 155.12669 -63.359883 98.940411 163.967817 -23.038753 144.329575 -3.934887 9.995432 -2.319508 -45.693453 7.871339 43.838759 -1.973981 -5.02294 -1.45835 -15.977963 44.862867 21.127981 -4.344419 -6.854178 0.189377 -166.55748 -50.682539 136.659921 3.448395 -8.745084 -0.687835 7.60351 -13.919195 -3.04426 -142.053623 26.846882 -153.367178 -2.076781 -36.520542 -10.153479 27.69051 57.783934 -29.701283 89.493638 3.348493 -152.238575 3.353519 11.575284 135.850357 152.280508 20.556479 -135.391677 172.218445 -6.399974 -84.071331 76.119841 0.001873 -20.685959 -7.563816 -31.881558 18.882983 -8.336519 16.604085 -10.574167 -5.147191 -25.58589 -3.475785 40.205599 -79.618431 73.122113 70.151388 -73.646712 88.909584 65.275413 -82.477748 90.713177 141.705379 -2.953502 134.717969 152.404178 10.615427 134.146852 0.205325 6.644335 -0.285977 -69.352937 -61.170913 -0.0 67.180207 21.04045 5.770608 2.966231 -26.264466 -83.945489 -111.446315 63.816017 -37.554172 132.552812 64.794961 -0.0 -34.511331 42.364438 -26.239355 85.531293 79.325877 2.20397
5.9897 55.071999999999996 52.4096 170.024528 -48.929621 -169.925593 -8.293248 11.970414 -74.749332 7.53277 0.849313 77.412209 5.043421 21.227176 63.078421 -36.297168 -4.88115 -105.387059 -9.983226 -0.669061 7.649025 -1.514135 0.487056 -35.661376 -36.020759 -85.678883 -56.53692 -125.635491 -33.112336 164.491744 -10.773826 -5.032643 -54.546963 137.74102 -56.440597 121.975433 14.278635 -10.169163 -5.855495 -150.353427 -40.504545 97.588657 12.476388 -30.872147 -4.941319 -64.926215 58.58928 59.335248 -161.697708 11.298987 138.186316 -170.790616 28.148344 137.26773 4.605236 -7.14766 1.243062 -29.636473 -81.646754 -45.104632 1.287435 -4.825029 7.552942 79.153725 74.818349 -48.509947 155.17104 -0.586954 -162.309707 -95.520448 -30.993053 -131.21829 12.757057 -34.296287 -95.398859 12.661987 -52.79284 14.414665 164.790188 -0.489084 -81.810205 -176.208944 -12.920835 -84.246696 131.333435 32.404407 -114.627301 13.731448 19.421788 12.966801 151.713094 21.278439 -129.532618 165.274064 -2.244288 -123.469728 51.245423 68.828944 -71.393458 -9.152561 -3.408423 3.572121 124.979732 -27.408549 120.491747 1.502273 -7.944502 13.99643 -0.317354 6.312149 0.440454 -66.750189 -61.859413 110.748928 12.975285 -66.18399 -88.341182 -141.814962 -0.452328 79.192699 122.663513 60.272856 41.114372 -110.536275 51.582318 161.260852 -33.511538 -45.242992 113.222672 -110.977756 -67.037302 -20.435207
